<svg version="1.1" id="Layer_1" xmlns="http://www.w3.org/2000/svg" xmlns:xlink="http://www.w3.org/1999/xlink" x="0px" y="0px" viewBox="0 0 100 100" enable-background="new 0 0 100 100" xml:space="preserve">
<path d="M50,5C25.2,5,5,25.2,5,50c0,24.9,20.2,45,45,45s45-20.1,45-45C95,25.2,74.8,5,50,5z M78.6,25.7c5.1,6,8.3,13.5,8.8,21.8c-8.1-0.4-17.8-0.4-25.6,0.3c-1-2.5-2-4.9-3.1-7.3C67.7,36.7,74.6,31.6,78.6,25.7z M50,12.5c9.1,0,17.4,3.2,23.9,8.6c-4.1,5.2-10.5,9.6-18.4,13c-4.4-8.1-9.4-15-14.7-20.5C43.7,12.9,46.8,12.5,50,12.5z M33,16.6c5.4,5.4,10.5,12.3,15,20.3C39.5,39.5,29.8,41,19.5,41c-2,0-3.9-0.1-5.8-0.2C16.4,30.2,23.5,21.4,33,16.6z M12.6,48.2c2.1,0.1,4.3,0.1,6.5,0.1c11.8-0.1,22.8-2,32.3-5c0.9,1.9,1.7,3.8,2.5,5.7c-1.3,0.3-2.4,0.6-3.4,1c-12.9,5.4-23.1,14.2-28.6,24.7c-5.8-6.6-9.4-15.3-9.4-24.8C12.5,49.4,12.5,48.8,12.6,48.2z M50,87.5c-8.7,0-16.6-3-23-7.9c5-9.9,13.9-18.1,25.1-23.2c1.1-0.5,2.5-0.9,4.1-1.2c1.3,3.7,2.5,7.5,3.6,11.5c1.6,6.2,2.8,12.4,3.5,18.3C59.1,86.6,54.7,87.5,50,87.5z M70.3,81.5c-0.7-6-1.9-12.2-3.5-18.5c-0.8-3-1.7-6-2.7-8.9c7.4-0.6,16.2-0.5,23.2,0C86,65.7,79.5,75.5,70.3,81.5z"/>
</svg>
