<svg version="1.1" id="Layer_1" xmlns="http://www.w3.org/2000/svg" xmlns:xlink="http://www.w3.org/1999/xlink" x="0px" y="0px" viewBox="0 0 100 100" enable-background="new 0 0 100 100" xml:space="preserve">
<path d="M50.2,27.3C37.5,27.3,27,37.6,27,50.4s10.3,23.2,23.2,23.2s23.2-10.5,23.2-23.2S62.9,27.3,50.2,27.3z M50.2,65.3c-8.1,0-14.8-6.7-14.8-14.8s6.7-14.8,14.8-14.8S65,42.3,65,50.4S58.3,65.3,50.2,65.3z M74.3,21.5c2.9,0,5.2,2.4,5.2,5.2S77.2,32,74.3,32c-2.9,0-5.2-2.4-5.2-5.2S71.4,21.5,74.3,21.5z M87.8,13.1c-4.7-4.9-11.4-7.4-19-7.4H31.6C15.8,5.7,5.3,16.2,5.3,32v37.1c0,7.8,2.5,14.5,7.6,19.4c4.9,4.7,11.4,7.1,18.8,7.1h36.9c7.8,0,14.3-2.5,19-7.1c4.9-4.7,7.4-11.4,7.4-19.2V32C95.1,24.4,92.6,17.8,87.8,13.1z M87.1,69.2c0,5.6-2,10.1-5.2,13.2s-7.8,4.7-13.2,4.7H31.7c-5.4,0-10-1.6-13.2-4.7c-3.3-3.3-4.9-7.8-4.9-13.4V32c0-5.4,1.6-10,4.9-13.2c3.1-3.1,7.8-4.7,13.2-4.7H69c5.4,0,10,1.6,13.2,4.9c3.1,3.3,4.9,7.8,4.9,13V69.2L87.1,69.2z"/>
</svg>
