<svg version="1.1" id="Layer_1" xmlns="http://www.w3.org/2000/svg" xmlns:xlink="http://www.w3.org/1999/xlink" x="0px" y="0px" viewBox="0 0 100 100" enable-background="new 0 0 100 100" xml:space="preserve">
<path id="rect2987" fill="#0083BE" d="M16.3,5h67.5C90,5,95,10,95,16.3v67.5C95,90,90,95,83.8,95H16.3C10,95,5,90,5,83.8V16.3C5,10,10,5,16.3,5z"/>
<path fill="#FFFFFF" d="M15.7,36.4h15.1v45.3H15.7V36.4z M23.4,14.5c-5.2,0-8.5,3.4-8.5,7.8c0,4.4,3.3,7.8,8.3,7.8h0.1c5.3,0,8.5-3.5,8.5-7.8C31.7,17.9,28.5,14.5,23.4,14.5L23.4,14.5z M67.8,35.3c-8,0-11.6,4.4-13.6,7.5v-6.4H39.1c0.2,4.3,0,45.3,0,45.3h15.1V56.4c0-1.4,0.1-2.7,0.5-3.7c1.1-2.7,3.6-5.5,7.7-5.5c5.5,0,7.6,4.2,7.6,10.3v24.3h15.1v-26C85.2,41.8,77.7,35.3,67.8,35.3z"/>
</svg>
