<svg id="Group_7" data-name="Group 7" xmlns="http://www.w3.org/2000/svg" width="100" height="100" viewBox="0 0 100 100">
  <path id="Path_34" data-name="Path 34" d="M0,0H100V100H0Z" transform="translate(0)" fill="#0d2a46"/>
  <g id="Group_5" data-name="Group 5" transform="translate(14.714 13.796)">
    <path id="Path_25" data-name="Path 25" d="M449.363-139.219c-4.376,0-6.207-3.862-6.207-7.779s1.83-7.781,6.207-7.781a4.882,4.882,0,0,1,5.091,4.061h3.575c-.429-4.4-4.062-6.948-8.666-6.979-6.121,0-9.782,4.863-9.782,10.7s3.661,10.7,9.782,10.7a8.367,8.367,0,0,0,8.694-8.267h-3.49C454.282-141.593,452.537-139.219,449.363-139.219Z" transform="translate(-439.066 184.254)" fill="#e6eded"/>
    <rect id="Rectangle_2" data-name="Rectangle 2" width="3.576" height="20.422" transform="translate(43.096 27.045)" fill="#e6eded"/>
    <path id="Path_26" data-name="Path 26" d="M491.374-147.868c-1.058-.317-5.578-1.488-5.891-1.575-1.46-.4-2.431-1.2-2.431-2.63,0-2.06,2.087-2.661,3.746-2.661,2.459,0,4.233.973,4.4,3.6h3.575c0-4.261-3.575-6.522-7.837-6.522-3.689,0-7.466,1.917-7.466,6.006,0,2.117,1.031,4.234,4.52,5.177,2.8.774,4.662,1.144,6.093,1.688a2.427,2.427,0,0,1,1.687,2.516c0,1.545-1.173,3.09-4.318,3.09-2.861,0-5.177-1.231-5.177-4.376H478.7c.085,5.062,3.862,7.294,8.523,7.294,4.062,0,8.124-1.83,8.124-6.407A5.4,5.4,0,0,0,491.374-147.868Z" transform="translate(-427.653 184.268)" fill="#e6eded"/>
    <path id="Path_27" data-name="Path 27" d="M440.957-133.2h6.464v17.333H451V-133.2h6.493v-3.089H440.957Z" transform="translate(-438.664 190.499)" fill="#e6eded"/>
    <rect id="Rectangle_3" data-name="Rectangle 3" width="3.576" height="20.422" transform="translate(23.066 54.207)" fill="#e6eded"/>
    <path id="Path_28" data-name="Path 28" d="M469.4-136.292l-7.835,20.423h3.689l1.916-5.407h8.152l1.916,5.407h3.834l-7.867-20.423Zm-1.258,12.3,3.09-8.778h.085l3.061,8.778Z" transform="translate(-432.652 190.498)" fill="#e6eded"/>
    <path id="Path_29" data-name="Path 29" d="M491.894-121.247h-.058l-9.324-15.044h-3.776v20.422h3.4v-15.016h.085l9.3,15.016H495.3v-20.422h-3.4Z" transform="translate(-427.644 190.499)" fill="#e6eded"/>
    <path id="Path_30" data-name="Path 30" d="M444.788-163.241h8.152l1.916,5.406h3.834l-7.867-20.422h-3.8l-7.837,20.422h3.689Zm4.061-11.5h.087l3.06,8.78h-6.235Z" transform="translate(-439.182 178.257)" fill="#e6eded"/>
    <path id="Path_31" data-name="Path 31" d="M471-160.924H460.615v-17.333h-3.576v20.422H471Z" transform="translate(-433.973 178.257)" fill="#e6eded"/>
    <path id="Path_32" data-name="Path 32" d="M484.063-178.257H467.53v3.089h6.465v17.333h3.575v-17.333h6.493Z" transform="translate(-430.913 178.257)" fill="#e6eded"/>
    <path id="Path_33" data-name="Path 33" d="M466.594-145.336l3.888,8.484h3.832l-4.412-9.313a7.931,7.931,0,0,0,2.577-2.107,5.6,5.6,0,0,0,1.063-3.482c0-3.46-2.288-5.519-6.751-5.519h-9.752v20.422h3.575v-8.41h4.04C465.346-145.262,465.985-145.288,466.594-145.336Zm-5.979-9.02h5.806c1.859,0,3.546.514,3.546,3.117,0,2.146-1.23,3.262-3.489,3.262h-5.863Z" transform="translate(-433.973 184.378)" fill="#e6eded"/>
  </g>
</svg>
