<?xml version="1.0" encoding="utf-8"?>
<!-- Generator: Adobe Illustrator 23.0.3, SVG Export Plug-In . SVG Version: 6.00 Build 0)  -->
<svg version="1.1" id="Layer_1" xmlns="http://www.w3.org/2000/svg" xmlns:xlink="http://www.w3.org/1999/xlink" x="0px" y="0px"
	 viewBox="0 0 100 100" enable-background="new 0 0 100 100" xml:space="preserve">
<rect x="5" y="5" fill-rule="evenodd" clip-rule="evenodd" fill="none" stroke="#1769FF" stroke-miterlimit="10" width="90" height="90"/>
<rect y="0" fill-rule="evenodd" clip-rule="evenodd" fill="none" stroke="#1769FF" stroke-miterlimit="10" width="100" height="100"/>
<path d="M5.3,32.2L9,37c0,0,7.5-5.9,10-2.9c2.5,2.9,12,38.5,15.2,45.1c2.8,5.8,10.4,13.4,18.8,7.9c8.4-5.4,36.3-29.2,41.3-57.4
	c5-28.1-33.6-22.2-37.6,2.3c10.2-6.1,15.6,2.5,10.4,12.2C61.8,54,57,60.4,54.5,60.4c-2.5,0-4.4-6.5-7.3-17.9
	c-3-11.8-2.9-33-15.2-30.6C20.5,14.1,5.3,32.2,5.3,32.2z"/>
</svg>
